<svg width="225" height="144" viewBox="0 0 225 144" fill="none" xmlns="http://www.w3.org/2000/svg">
<style>
    path {
      fill: #0F0F0F;
    }

    @media (prefers-color-scheme: dark) {
      path {
        fill: white;
      }
    }
  </style>
<path d="M211.78 79.1962C209.219 81.8795 206.418 89.3404 203.937 93.0544C188.795 115.764 164.689 134.465 135.029 141.124C117.982 144.953 105.85 144.937 88.7386 141.206C58.2783 134.563 32.5239 114.063 17.83 90.3548C9.7627 77.3474 3.13603 57.4191 0.623016 42.8247C0.382919 41.483 -0.497427 37.18 0.382928 37C7.4898 39.127 14.5913 41.254 21.6876 43.381C26.7882 50.3292 31.889 57.2773 36.9897 64.2255C44.6941 56.5901 52.3985 48.9493 60.1031 41.3031C62.504 48.4584 64.905 55.614 67.306 62.7693L67.9942 63.3747C72.1559 60.9642 76.3176 58.5481 80.4793 56.1266C88.5786 66.0416 96.2777 76.2185 105.529 85.3809C116.206 76.6602 122.88 65.1417 129.555 54.0323C136.662 61.2423 143.774 68.4522 150.892 75.6622L158.751 65.2072C163.233 68.5449 167.714 71.8827 172.196 75.2204C177.735 63.3093 183.273 51.3927 188.811 39.4706C199.547 43.6701 210.276 47.864 221 52.0526C217.927 61.0841 214.853 70.121 211.78 79.1635V79.1962Z" />
<path d="M212.655 38.1167C214.755 38.9553 217.111 39.613 219.146 40.5339C222.705 42.1289 228.187 44.6942 222.625 43.7569C219.195 43.1813 192.234 31.4405 185.053 29.6974C180.201 40.66 175.35 51.628 170.498 62.6014C166.395 59.5868 162.296 56.5665 158.204 53.5409C155.736 56.7749 153.267 60.0033 150.799 63.2263C143.372 55.98 135.945 48.7339 128.518 41.4876C121.546 52.8009 115.471 64.5582 106.783 75C99.1958 65.3311 91.6088 55.6621 84.0218 45.9932L72.8977 51.6663L72.2084 51.0579C69.4941 43.1978 66.7799 35.3377 64.0657 27.4775C55.5809 35.6884 47.0962 43.9049 38.6116 52.1267C25.9647 34.6635 20.5309 25.8496 38.6116 46.0754C45.6964 33.4248 52.7865 20.7739 59.8821 8.12322C67.1593 17.518 74.4365 26.9185 81.7136 36.3243C87.4092 24.2107 93.1103 12.1026 98.8166 0C102.076 9.27428 105.335 18.5486 108.594 27.8229C119.398 19.4694 130.201 11.116 141.005 2.76255C143.954 12.574 146.904 22.3854 149.853 32.1969C160.508 25.7291 171.16 19.2557 181.815 12.7768L184.62 27.6913C194.029 31.0294 203.454 34.4168 212.687 38.1331L212.655 38.1167Z" />
</svg>
