<svg width="340" height="277" viewBox="0 0 340 277" fill="none" xmlns="http://www.w3.org/2000/svg">
<path d="M265.074 223.935C250.457 224.558 235.74 220.697 224.223 211.542C184.873 180.261 203.124 115.505 255.258 110.094C303.968 107.453 334.137 160.977 306.438 199.834C296.182 214.222 282.214 221.002 265.074 223.935ZM258.312 122.962C250.857 123.181 240.159 126.107 234.574 131.156C236.489 133.453 238.705 135.506 240.844 137.596L288.296 184.346C290.826 186.889 293.335 189.458 295.961 191.905C310.684 175.369 304.198 147.351 288.219 133.477C281.535 127.674 267.338 121.444 258.312 122.962ZM224.873 140.219C217.429 151.325 214.563 163.602 217.21 176.764C222.438 202.767 250.355 216.753 275.103 207.785C279.31 206.047 283.201 204.067 286.844 201.31C280.519 194.228 272.57 186.771 265.721 180.172L245.192 160.029C239.598 154.536 231.003 144.58 224.873 140.219Z" fill="black"/>
<path d="M320.708 57.4291C323.879 58.6926 327.438 59.6836 330.512 61.071C335.885 63.4742 344.164 67.3392 335.764 65.927C330.584 65.0599 289.871 47.3703 279.027 44.7441C271.7 61.2611 264.375 77.7862 257.048 94.3195C250.852 89.7774 244.662 85.2269 238.483 80.6683C234.755 85.5408 231.027 90.405 227.3 95.2609C216.084 84.3432 204.869 73.4257 193.654 62.508C183.125 79.5534 173.951 97.2677 160.831 113C149.374 98.4321 137.917 83.8643 126.46 69.2964L109.661 77.8439L108.62 76.9272C104.521 65.0846 100.423 53.2421 96.324 41.3995C83.5111 53.7705 70.6984 66.15 57.8857 78.5376C38.7877 52.2263 30.582 38.9467 57.8857 69.4203C68.5846 50.36 79.2913 31.2994 90.0064 12.239C100.996 26.3939 111.985 40.5571 122.974 54.7286C131.575 36.4774 140.184 18.2346 148.801 0C153.723 13.9732 158.645 27.9465 163.567 41.9198C179.881 29.3339 196.196 16.7481 212.51 4.16224C216.964 18.9448 221.418 33.7273 225.872 48.51C241.961 38.7651 258.048 29.0119 274.137 19.2504L278.373 41.7216C292.582 46.7509 306.815 51.8547 320.757 57.4539L320.708 57.4291Z" fill="black"/>
<path d="M206.729 211.974C196.572 199.924 190.452 184.36 190.452 167.367C190.452 142.689 203.36 121.026 222.792 108.76C213.706 99.549 204.626 90.3382 195.552 81.1271C195.135 81.8219 194.717 82.5178 194.3 83.2144C184.632 99.3386 174.735 115.846 159.287 128.471C148.185 117.47 138.564 105.501 128.944 93.5319C126.463 90.4457 123.982 87.3595 121.476 84.29C115.195 87.947 108.913 91.5959 102.631 95.2364L101.592 94.3221L90.7202 61.9029C79.0909 73.4506 67.4618 84.99 55.8327 96.5213C53.4986 93.3401 51.1646 90.1589 48.8305 86.9778C43.4654 79.6655 38.1004 72.3534 32.7354 65.0411C22.0243 61.8288 11.3052 58.6165 0.577996 55.4043C-0.637782 55.653 0.371136 61.1141 0.82915 63.5933C0.871735 63.8239 0.909557 64.0286 0.940387 64.2009C4.73355 86.2421 14.7359 116.339 26.9128 135.983C49.092 171.787 87.9659 202.749 133.943 212.781C159.77 218.415 178.084 218.439 203.815 212.657C204.79 212.438 205.762 212.21 206.729 211.974Z" fill="black"/>
<path d="M236.563 102.074C238.541 101.372 240.56 100.758 242.617 100.237L239.62 98.0039L236.563 102.074Z" fill="black"/>
<path d="M315.635 126.512C304.335 111.071 286.796 100.483 266.728 98.4632C272.817 85.3583 278.905 72.2491 284.993 59.1354C301.198 65.4777 317.392 71.8116 333.58 78.1373C332.34 81.7825 331.151 85.41 329.969 89.0136C325.737 101.918 321.606 114.515 315.635 126.512Z" fill="black"/>
<path d="M37.421 242.818V269H34.2505V242.818H37.421ZM43.3688 269V249.364H46.2836V252.432H46.5392C46.9483 251.384 47.6088 250.57 48.5208 249.99C49.4327 249.402 50.5279 249.108 51.8063 249.108C53.1017 249.108 54.1799 249.402 55.0407 249.99C55.91 250.57 56.5875 251.384 57.0733 252.432H57.2779C57.7807 251.418 58.535 250.612 59.5407 250.016C60.5463 249.411 61.7523 249.108 63.1586 249.108C64.9142 249.108 66.3503 249.658 67.4668 250.757C68.5833 251.848 69.1415 253.548 69.1415 255.858V269H66.1245V255.858C66.1245 254.409 65.7282 253.374 64.9355 252.751C64.1429 252.129 63.2097 251.818 62.1358 251.818C60.7552 251.818 59.6855 252.236 58.927 253.071C58.1685 253.898 57.7892 254.946 57.7892 256.216V269H54.7211V255.551C54.7211 254.435 54.3588 253.536 53.6344 252.854C52.91 252.163 51.9767 251.818 50.8347 251.818C50.0506 251.818 49.3176 252.027 48.6358 252.445C47.9625 252.862 47.4171 253.442 46.9995 254.183C46.5904 254.916 46.3858 255.764 46.3858 256.727V269H43.3688ZM80.4363 269.46C79.1919 269.46 78.0627 269.226 77.0485 268.757C76.0343 268.28 75.2289 267.594 74.6323 266.699C74.0357 265.795 73.7374 264.705 73.7374 263.426C73.7374 262.301 73.959 261.389 74.4022 260.69C74.8453 259.983 75.4377 259.429 76.1792 259.028C76.9206 258.628 77.7388 258.33 78.6337 258.134C79.5371 257.929 80.4448 257.767 81.3567 257.648C82.5499 257.494 83.5172 257.379 84.2587 257.303C85.0087 257.217 85.5542 257.077 85.8951 256.881C86.2445 256.685 86.4192 256.344 86.4192 255.858V255.756C86.4192 254.494 86.074 253.514 85.3837 252.815C84.7019 252.116 83.6664 251.767 82.2772 251.767C80.8368 251.767 79.7076 252.082 78.8894 252.713C78.0712 253.344 77.4959 254.017 77.1635 254.733L74.2999 253.71C74.8113 252.517 75.4931 251.588 76.3453 250.923C77.2061 250.25 78.1436 249.781 79.1578 249.517C80.1806 249.244 81.1863 249.108 82.1749 249.108C82.8056 249.108 83.53 249.185 84.3482 249.338C85.1749 249.483 85.9718 249.786 86.7388 250.246C87.5144 250.706 88.1578 251.401 88.6692 252.33C89.1806 253.259 89.4363 254.503 89.4363 256.062V269H86.4192V266.341H86.2658C86.0613 266.767 85.7203 267.223 85.2431 267.709C84.7658 268.195 84.1309 268.608 83.3382 268.949C82.5456 269.29 81.5783 269.46 80.4363 269.46ZM80.8965 266.75C82.0897 266.75 83.0953 266.516 83.9135 266.047C84.7402 265.578 85.3624 264.973 85.78 264.232C86.2061 263.49 86.4192 262.71 86.4192 261.892V259.131C86.2914 259.284 86.0101 259.425 85.5755 259.553C85.1493 259.672 84.655 259.778 84.0925 259.872C83.5385 259.957 82.9973 260.034 82.4689 260.102C81.949 260.162 81.5272 260.213 81.2033 260.256C80.4192 260.358 79.6863 260.524 79.0044 260.754C78.3311 260.976 77.7857 261.312 77.3681 261.764C76.959 262.207 76.7544 262.812 76.7544 263.58C76.7544 264.628 77.1422 265.42 77.9178 265.957C78.7019 266.486 79.6948 266.75 80.8965 266.75ZM102.869 276.773C101.412 276.773 100.159 276.585 99.1106 276.21C98.0623 275.844 97.1887 275.358 96.4899 274.753C95.7995 274.156 95.2498 273.517 94.8407 272.835L97.2441 271.148C97.5169 271.506 97.862 271.915 98.2797 272.375C98.6973 272.844 99.2683 273.249 99.9927 273.589C100.726 273.939 101.684 274.114 102.869 274.114C104.454 274.114 105.763 273.73 106.794 272.963C107.825 272.196 108.341 270.994 108.341 269.358V265.369H108.085C107.863 265.727 107.548 266.17 107.139 266.699C106.738 267.219 106.159 267.683 105.4 268.092C104.65 268.493 103.636 268.693 102.358 268.693C100.773 268.693 99.3493 268.318 98.0879 267.568C96.835 266.818 95.8422 265.727 95.1092 264.295C94.3848 262.864 94.0225 261.125 94.0225 259.08C94.0225 257.068 94.3762 255.317 95.0836 253.825C95.791 252.325 96.7754 251.166 98.0368 250.348C99.2981 249.521 100.756 249.108 102.409 249.108C103.687 249.108 104.702 249.321 105.452 249.747C106.21 250.165 106.79 250.642 107.19 251.179C107.599 251.707 107.915 252.142 108.136 252.483H108.443V249.364H111.358V269.562C111.358 271.25 110.974 272.622 110.207 273.679C109.449 274.744 108.426 275.524 107.139 276.018C105.861 276.521 104.437 276.773 102.869 276.773ZM102.767 265.983C103.977 265.983 105 265.706 105.835 265.152C106.67 264.598 107.305 263.801 107.74 262.761C108.175 261.722 108.392 260.477 108.392 259.028C108.392 257.614 108.179 256.365 107.753 255.283C107.327 254.2 106.696 253.352 105.861 252.739C105.025 252.125 103.994 251.818 102.767 251.818C101.488 251.818 100.423 252.142 99.5708 252.79C98.7271 253.437 98.0922 254.307 97.666 255.398C97.2484 256.489 97.0396 257.699 97.0396 259.028C97.0396 260.392 97.2527 261.598 97.6788 262.646C98.1135 263.686 98.7527 264.504 99.5964 265.101C100.449 265.689 101.506 265.983 102.767 265.983ZM125.113 269.409C123.221 269.409 121.589 268.991 120.217 268.156C118.854 267.312 117.801 266.136 117.059 264.628C116.327 263.111 115.96 261.347 115.96 259.335C115.96 257.324 116.327 255.551 117.059 254.017C117.801 252.474 118.832 251.273 120.153 250.412C121.483 249.543 123.034 249.108 124.807 249.108C125.829 249.108 126.839 249.278 127.836 249.619C128.834 249.96 129.741 250.514 130.559 251.281C131.378 252.04 132.03 253.045 132.515 254.298C133.001 255.551 133.244 257.094 133.244 258.926V260.205H118.108V257.597H130.176C130.176 256.489 129.954 255.5 129.511 254.631C129.077 253.761 128.454 253.075 127.645 252.572C126.844 252.07 125.898 251.818 124.807 251.818C123.605 251.818 122.565 252.116 121.687 252.713C120.818 253.301 120.149 254.068 119.68 255.014C119.211 255.96 118.977 256.974 118.977 258.057V259.795C118.977 261.278 119.233 262.536 119.744 263.567C120.264 264.589 120.984 265.369 121.905 265.906C122.825 266.435 123.895 266.699 125.113 266.699C125.906 266.699 126.622 266.588 127.261 266.366C127.909 266.136 128.467 265.795 128.936 265.344C129.405 264.884 129.767 264.312 130.023 263.631L132.937 264.449C132.631 265.438 132.115 266.307 131.39 267.057C130.666 267.798 129.771 268.378 128.706 268.795C127.64 269.205 126.443 269.409 125.113 269.409ZM150.976 257.188V269H147.959V249.364H150.873V252.432H151.129C151.589 251.435 152.288 250.634 153.226 250.028C154.163 249.415 155.373 249.108 156.856 249.108C158.186 249.108 159.349 249.381 160.346 249.926C161.344 250.463 162.119 251.281 162.673 252.381C163.227 253.472 163.504 254.852 163.504 256.523V269H160.487V256.727C160.487 255.185 160.086 253.983 159.285 253.122C158.484 252.253 157.385 251.818 155.987 251.818C155.024 251.818 154.163 252.027 153.405 252.445C152.655 252.862 152.062 253.472 151.628 254.273C151.193 255.074 150.976 256.045 150.976 257.188ZM176.994 269.409C175.222 269.409 173.666 268.987 172.328 268.143C170.999 267.3 169.959 266.119 169.209 264.602C168.468 263.085 168.097 261.312 168.097 259.284C168.097 257.239 168.468 255.453 169.209 253.928C169.959 252.402 170.999 251.217 172.328 250.374C173.666 249.53 175.222 249.108 176.994 249.108C178.767 249.108 180.318 249.53 181.648 250.374C182.986 251.217 184.026 252.402 184.767 253.928C185.517 255.453 185.892 257.239 185.892 259.284C185.892 261.312 185.517 263.085 184.767 264.602C184.026 266.119 182.986 267.3 181.648 268.143C180.318 268.987 178.767 269.409 176.994 269.409ZM176.994 266.699C178.341 266.699 179.449 266.354 180.318 265.663C181.188 264.973 181.831 264.065 182.249 262.94C182.666 261.815 182.875 260.597 182.875 259.284C182.875 257.972 182.666 256.749 182.249 255.615C181.831 254.482 181.188 253.565 180.318 252.866C179.449 252.168 178.341 251.818 176.994 251.818C175.648 251.818 174.54 252.168 173.671 252.866C172.801 253.565 172.158 254.482 171.74 255.615C171.323 256.749 171.114 257.972 171.114 259.284C171.114 260.597 171.323 261.815 171.74 262.94C172.158 264.065 172.801 264.973 173.671 265.663C174.54 266.354 175.648 266.699 176.994 266.699ZM199.037 249.364V251.92H188.861V249.364H199.037ZM191.827 244.659H194.844V263.375C194.844 264.227 194.968 264.866 195.215 265.293C195.471 265.71 195.795 265.991 196.187 266.136C196.587 266.273 197.009 266.341 197.452 266.341C197.785 266.341 198.057 266.324 198.27 266.29C198.483 266.247 198.654 266.213 198.782 266.188L199.395 268.898C199.191 268.974 198.905 269.051 198.539 269.128C198.172 269.213 197.708 269.256 197.145 269.256C196.293 269.256 195.458 269.072 194.64 268.706C193.83 268.339 193.157 267.781 192.62 267.031C192.091 266.281 191.827 265.335 191.827 264.193V244.659ZM222.445 249.364V251.92H211.86V249.364H222.445ZM215.03 269V246.653C215.03 245.528 215.295 244.591 215.823 243.841C216.351 243.091 217.037 242.528 217.881 242.153C218.725 241.778 219.616 241.591 220.553 241.591C221.295 241.591 221.9 241.651 222.368 241.77C222.837 241.889 223.187 242 223.417 242.102L222.547 244.71C222.394 244.659 222.181 244.595 221.908 244.518C221.644 244.442 221.295 244.403 220.86 244.403C219.863 244.403 219.143 244.655 218.699 245.158C218.265 245.661 218.047 246.398 218.047 247.369V269H215.03ZM233.842 269.409C232.069 269.409 230.514 268.987 229.176 268.143C227.846 267.3 226.807 266.119 226.057 264.602C225.315 263.085 224.944 261.312 224.944 259.284C224.944 257.239 225.315 255.453 226.057 253.928C226.807 252.402 227.846 251.217 229.176 250.374C230.514 249.53 232.069 249.108 233.842 249.108C235.615 249.108 237.166 249.53 238.496 250.374C239.834 251.217 240.873 252.402 241.615 253.928C242.365 255.453 242.74 257.239 242.74 259.284C242.74 261.312 242.365 263.085 241.615 264.602C240.873 266.119 239.834 267.3 238.496 268.143C237.166 268.987 235.615 269.409 233.842 269.409ZM233.842 266.699C235.189 266.699 236.297 266.354 237.166 265.663C238.035 264.973 238.679 264.065 239.096 262.94C239.514 261.815 239.723 260.597 239.723 259.284C239.723 257.972 239.514 256.749 239.096 255.615C238.679 254.482 238.035 253.565 237.166 252.866C236.297 252.168 235.189 251.818 233.842 251.818C232.496 251.818 231.388 252.168 230.518 252.866C229.649 253.565 229.006 254.482 228.588 255.615C228.17 256.749 227.961 257.972 227.961 259.284C227.961 260.597 228.17 261.815 228.588 262.94C229.006 264.065 229.649 264.973 230.518 265.663C231.388 266.354 232.496 266.699 233.842 266.699ZM259.72 260.972V249.364H262.737V269H259.72V265.676H259.516C259.056 266.673 258.34 267.521 257.368 268.22C256.396 268.911 255.169 269.256 253.686 269.256C252.459 269.256 251.368 268.987 250.414 268.45C249.459 267.905 248.709 267.087 248.164 265.996C247.618 264.896 247.345 263.511 247.345 261.841V249.364H250.362V261.636C250.362 263.068 250.763 264.21 251.564 265.062C252.374 265.915 253.405 266.341 254.658 266.341C255.408 266.341 256.171 266.149 256.946 265.766C257.73 265.382 258.387 264.794 258.915 264.001C259.452 263.209 259.72 262.199 259.72 260.972ZM271.28 257.188V269H268.263V249.364H271.178V252.432H271.434C271.894 251.435 272.593 250.634 273.53 250.028C274.468 249.415 275.678 249.108 277.161 249.108C278.491 249.108 279.654 249.381 280.651 249.926C281.648 250.463 282.424 251.281 282.978 252.381C283.532 253.472 283.809 254.852 283.809 256.523V269H280.792V256.727C280.792 255.185 280.391 253.983 279.59 253.122C278.789 252.253 277.689 251.818 276.292 251.818C275.329 251.818 274.468 252.027 273.709 252.445C272.959 252.862 272.367 253.472 271.932 254.273C271.498 255.074 271.28 256.045 271.28 257.188ZM296.737 269.409C295.1 269.409 293.656 268.996 292.403 268.169C291.15 267.334 290.17 266.158 289.463 264.641C288.755 263.115 288.401 261.312 288.401 259.233C288.401 257.17 288.755 255.381 289.463 253.864C290.17 252.347 291.154 251.175 292.416 250.348C293.677 249.521 295.134 249.108 296.788 249.108C298.066 249.108 299.076 249.321 299.818 249.747C300.568 250.165 301.139 250.642 301.531 251.179C301.931 251.707 302.242 252.142 302.464 252.483H302.72V242.818H305.737V269H302.822V265.983H302.464C302.242 266.341 301.927 266.793 301.518 267.338C301.109 267.875 300.525 268.357 299.767 268.783C299.008 269.2 297.998 269.409 296.737 269.409ZM297.146 266.699C298.356 266.699 299.379 266.384 300.214 265.753C301.049 265.114 301.684 264.232 302.119 263.107C302.553 261.973 302.771 260.665 302.771 259.182C302.771 257.716 302.558 256.433 302.132 255.334C301.705 254.226 301.075 253.365 300.24 252.751C299.404 252.129 298.373 251.818 297.146 251.818C295.867 251.818 294.802 252.146 293.95 252.803C293.106 253.45 292.471 254.332 292.045 255.449C291.627 256.557 291.419 257.801 291.419 259.182C291.419 260.58 291.632 261.849 292.058 262.991C292.492 264.125 293.132 265.028 293.975 265.702C294.828 266.366 295.884 266.699 297.146 266.699Z" fill="black"/>
</svg>
